<?xml version="1.0" ?><svg data-name="Layer 1" id="Layer_1" viewBox="0 0 140 140" xmlns="http://www.w3.org/2000/svg"><defs><style>.cls-1{fill:#d77165;}.cls-2{fill:#525354;}.cls-3{fill:#f0dc6a;}</style></defs><title/><circle class="cls-1" cx="70" cy="70" r="64"/><path class="cls-2" d="M39,54A17,17,0,1,0,56,71,17,17,0,0,0,39,54Zm0,27A10,10,0,1,1,49,71,10,10,0,0,1,39,81Z"/><path class="cls-2" d="M55,66h64a1,1,0,0,1,1,1v8a1,1,0,0,1-1,1H55a0,0,0,0,1,0,0V66A0,0,0,0,1,55,66Z"/><path class="cls-2" d="M112,76H100v9a1,1,0,0,0,1,1h2a1,1,0,0,0,1-1V83a1,1,0,0,1,1-1h2a1,1,0,0,1,1,1h0a1,1,0,0,0,1,1h2a1,1,0,0,1,1,1h0a1,1,0,0,0,1,1h2a1,1,0,0,0,1-1V76Z"/><path class="cls-3" d="M38,53A17,17,0,1,0,55,70,17,17,0,0,0,38,53Zm0,27A10,10,0,1,1,48,70,10,10,0,0,1,38,80Z"/><path class="cls-3" d="M118,65H54V75H99v9a1,1,0,0,0,1,1h2a1,1,0,0,0,1-1V82a1,1,0,0,1,1-1h2a1,1,0,0,1,1,1,1,1,0,0,0,1,1h2a1,1,0,0,1,1,1,1,1,0,0,0,1,1h2a1,1,0,0,0,1-1V75h3a1,1,0,0,0,1-1V66A1,1,0,0,0,118,65Z"/></svg>